<svg xmlns="http://www.w3.org/2000/svg" style="display: none;">
  <symbol id="attach" fill="currentColor" viewBox="0 -960 960 960">
    <path d="M728-326q0 103-72.18 174.5-72.17 71.5-175 71.5Q378-80 305.5-151.5T233-326v-380q0-72.5 51.5-123.25T408-880q72 0 123.5 50.75T583-706v360q0 42-30 72t-72.5 30q-42.5 0-72.5-29.67-30-29.68-30-72.33v-370h60v370q0 17 12.5 29.5t30.64 12.5q18.14 0 30-12.5T523-346v-360q0-48-33.5-81t-81.71-33q-48.21 0-81.5 33.06T293-706v380q0 78 54.97 132T481-140q77.92 0 132.46-54Q668-248 668-326v-390h60v390Z" />
  </symbol>

  <symbol id="child" fill="currentColor" viewBox="0 -960 960 960">
    <path d="M584-502q-19 0-32-13t-13-32q0-19 13-32t32-13q19 0 32 13t13 32q0 19-13 32t-32 13Zm-209 0q-19 0-32-13t-13-32q0-19 13-32t32-13q19 0 32 13t13 32q0 19-13 32t-32 13Zm105 216q-56 0-102-30t-72-79h348q-26 49-72 79t-102 30Zm0 166q-74 0-139.5-28.5T226-226q-49-49-77.5-114.5T120-480q0-74 28.5-139.5T226-734q49-49 114.5-77.5T480-840q74 0 139.5 28.5T734-734q49 49 77.5 114.5T840-480q0 74-28.5 139.5T734-226q-49 49-114.5 77.5T480-120Zm0-60q123 0 211.5-87.5T780-478q0-123-87-215t-215-92h-18q-7 0-18 1-2 8-3.5 19t-1.5 19q0 25 16.5 41.5T495-688q12 0 20-1.5t15-1.5q10 0 17 5t7 15q0 16-15 24.5t-44 8.5q-46 0-77-31t-31-77q0-5 .5-13t2.5-13q-91 33-150.5 110T180-482q0 123 88.5 212.5T480-180Zm0-302Z" />
  </symbol>

  <symbol id="content_cut" fill="currentColor" viewBox="0 -960 960 960">
    <path d="M782-114 481-415 364-298q11 17 13.5 33t2.5 35q0 64-43 107T230-80q-64 0-107-43T80-230q0-64 43-107t107-43q18 0 35.5 5t36.5 15l116-116-118-118q-17 8-34.5 11t-35.5 3q-64 0-107-43T80-730q0-64 43-107t107-43q64 0 107 43t43 107q0 19-2.5 36T367-662l514 514v34h-99ZM599-527l-66-66 249-249h99v33L599-527ZM230-640q38 0 64-26t26-64q0-38-26-64t-64-26q-38 0-64 26t-26 64q0 38 26 64t64 26Zm253 183q8 0 13.5-5.5T502-476q0-8-5.5-13.5T483-495q-8 0-13.5 5.5T464-476q0 8 5.5 13.5T483-457ZM230-140q38 0 64-26t26-64q0-38-26-64t-64-26q-38 0-64 26t-26 64q0 38 26 64t64 26Z" />
  </symbol>

  <symbol id="content_paste" fill="currentColor" viewBox="0 -960 960 960">
    <path d="M180-120q-26 0-43-17t-17-43v-600q0-26 17-43t43-17h202q7-35 34.5-57.5T480-920q36 0 63.5 22.5T578-840h202q26 0 43 17t17 43v600q0 26-17 43t-43 17H180Zm0-60h600v-600h-60v90H240v-90h-60v600Zm300-600q17 0 28.5-11.5T520-820q0-17-11.5-28.5T480-860q-17 0-28.5 11.5T440-820q0 17 11.5 28.5T480-780Z" />
  </symbol>

  <symbol id="delete" fill="currentColor" viewBox="0 -960 960 960">
    <path d="M261-120q-24.75 0-42.37-17.63Q201-155.25 201-180v-570h-41v-60h188v-30h264v30h188v60h-41v570q0 24-18 42t-42 18H261Zm438-630H261v570h438v-570ZM367-266h60v-399h-60v399Zm166 0h60v-399h-60v399ZM261-750v570-570Z" />
  </symbol>

  <symbol id="description" fill="currentColor" viewBox="0 -960 960 960">
    <path d="M319-250h322v-60H319v60Zm0-170h322v-60H319v60ZM220-80q-24 0-42-18t-18-42v-680q0-24 18-42t42-18h361l219 219v521q0 24-18 42t-42 18H220Zm331-554v-186H220v680h520v-494H551ZM220-820v186-186 680-680Z" />
  </symbol>

  <symbol id="elderly" fill="currentColor" viewBox="0 -960 960 960">
    <path d="m320-40-48-36 104-139-8-191q-2-52 5.5-109.5T397-617l-97 56v111h-60v-146l167-96q17-10 32.5-15t29.5-5q27 0 48.5 21t41.5 66q20 46 59 75.5t94 46.5q7-4 13.5-5.5T739-510q23 0 42 18.5t19 41.5v410h-30v-410q0-12-9-21t-21-9q-12 0-21 9t-9 21v30h-30v-33q-42-11-87.5-42T521-568q-12 34-18.5 75t-4.5 73l97 137v243h-60v-219l-85-95-10 154L320-40Zm218-714q-30 0-51.5-21.5T465-827q0-30 21.5-51.5T538-900q30 0 51.5 21.5T611-827q0 30-21.5 51.5T538-754Z" />
  </symbol>

  <symbol id="file_copy" fill="currentColor" viewBox="0 -960 960 960">
    <path d="M780-160H260q-24 0-42-18t-18-42v-640q0-24 18-42t42-18h348l232 232v468q0 24-18 42t-42 18ZM578-662v-198H260v640h520v-442H578ZM140-40q-24 0-42-18t-18-42v-619h60v619h498v60H140Zm120-820v198-198 640-640Z" />
  </symbol>

  <symbol id="folder" fill="currentColor" viewBox="0 -960 960 960">
    <path d="M140-160q-24 0-42-18.5T80-220v-520q0-23 18-41.5t42-18.5h281l60 60h339q23 0 41.5 18.5T880-680v460q0 23-18.5 41.5T820-160H140Zm0-60h680v-460H456l-60-60H140v520Zm0 0v-520 520Z" />
  </symbol>

  <symbol id="image" fill="currentColor" viewBox="0 -960 960 960">
    <path d="M180-120q-24 0-42-18t-18-42v-600q0-24 18-42t42-18h600q24 0 42 18t18 42v600q0 24-18 42t-42 18H180Zm0-60h600v-600H180v600Zm56-97h489L578-473 446-302l-93-127-117 152Zm-56 97v-600 600Z" />
  </symbol>

  <symbol id="music_note" fill="currentColor" viewBox="0 -960 960 960">
    <path d="M393-120q-63 0-106.5-43.5T243-270q0-63 43.5-106.5T393-420q28 0 50.5 8t39.5 22v-450h234v135H543v435q0 63-43.5 106.5T393-120Z" />
  </symbol>

  <symbol id="photo_camera" fill="currentColor" viewBox="0 -960 960 960">
    <path d="M479.5-267q72.5 0 121.5-49t49-121.5q0-72.5-49-121T479.5-607q-72.5 0-121 48.5t-48.5 121q0 72.5 48.5 121.5t121 49Zm0-60q-47.5 0-78.5-31.5t-31-79q0-47.5 31-78.5t78.5-31q47.5 0 79 31t31.5 78.5q0 47.5-31.5 79t-79 31.5ZM140-120q-24 0-42-18t-18-42v-513q0-23 18-41.5t42-18.5h147l73-87h240l73 87h147q23 0 41.5 18.5T880-693v513q0 24-18.5 42T820-120H140Zm0-60h680v-513H645l-73-87H388l-73 87H140v513Zm340-257Z" />
  </symbol>

  <symbol id="share" fill="currentColor" viewBox="0 -960 960 960">
    <path d="M680-80q-50 0-85-35t-35-85q0-6 3-28L282-392q-16 15-37 23.5t-45 8.5q-50 0-85-35t-35-85q0-50 35-85t85-35q24 0 45 8.5t37 23.5l281-164q-2-7-2.5-13.5T560-760q0-50 35-85t85-35q50 0 85 35t35 85q0 50-35 85t-85 35q-24 0-45-8.5T598-672L317-508q2 7 2.5 13.5t.5 14.5q0 8-.5 14.5T317-452l281 164q16-15 37-23.5t45-8.5q50 0 85 35t35 85q0 50-35 85t-85 35Zm0-80q17 0 28.5-11.5T720-200q0-17-11.5-28.5T680-240q-17 0-28.5 11.5T640-200q0 17 11.5 28.5T680-160ZM200-440q17 0 28.5-11.5T240-480q0-17-11.5-28.5T200-520q-17 0-28.5 11.5T160-480q0 17 11.5 28.5T200-440Zm480-280q17 0 28.5-11.5T720-760q0-17-11.5-28.5T680-800q-17 0-28.5 11.5T640-760q0 17 11.5 28.5T680-720Zm0 520ZM200-480Zm480-280Z" />
  </symbol>

  <symbol id="undo" fill="currentColor" viewBox="0 -960 960 960">
    <path d="M259-200v-60h310q70 0 120.5-46.5T740-422q0-69-50.5-115.5T569-584H274l114 114-42 42-186-186 186-186 42 42-114 114h294q95 0 163.5 64T800-422q0 94-68.5 158T568-200H259Z" />
  </symbol>

  <symbol id="upload_file" fill="currentColor" viewBox="0 -960 960 960">
    <path d="M452-202h60v-201l82 82 42-42-156-152-154 154 42 42 84-84v201ZM220-80q-24 0-42-18t-18-42v-680q0-24 18-42t42-18h361l219 219v521q0 24-18 42t-42 18H220Zm331-554v-186H220v680h520v-494H551ZM220-820v186-186 680-680Z" />
  </symbol>

  <symbol id="videocam" fill="currentColor" viewBox="0 -960 960 960">
    <path d="M140-160q-24 0-42-18t-18-42v-520q0-24 18-42t42-18h520q24 0 42 18t18 42v215l160-160v410L720-435v215q0 24-18 42t-42 18H140Zm0-60h520v-520H140v520Zm0 0v-520 520Z" />
  </symbol>
</svg>